<svg viewBox="-2.4 -2.4 28.80 28.80" id="Layer_1" data-name="Layer 1" xmlns="http://www.w3.org/2000/svg" fill="#ffd6d6" stroke="#ffd6d6"><g id="SVGRepo_bgCarrier" stroke-width="0" transform="translate(1.1999999999999993,1.1999999999999993), scale(0.9)"><rect x="-2.4" y="-2.4" width="28.80" height="28.80" rx="14.4" fill="#000000" strokewidth="0"></rect></g><g id="SVGRepo_tracerCarrier" stroke-linecap="round" stroke-linejoin="round" stroke="#CCCCCC" stroke-width="0.192"></g><g id="SVGRepo_iconCarrier"><defs><style>.cls-1{fill:none;stroke:#ffffff;stroke-miterlimit:10;stroke-width:1.91px;}</style></defs><path class="cls-1" d="M16.35,21.58a10.5,10.5,0,1,0-8.7,0"></path><path class="cls-1" d="M9.14,6.3h5.73A1.91,1.91,0,0,1,16.77,8.2v6.68a0,0,0,0,1,0,0H7.23a0,0,0,0,1,0,0V8.2A1.91,1.91,0,0,1,9.14,6.3Z"></path><line class="cls-1" x1="7.23" y1="23.48" x2="9.14" y2="14.89"></line><line class="cls-1" x1="16.77" y1="23.48" x2="14.86" y2="14.89"></line><line class="cls-1" x1="15.5" y1="17.75" x2="8.5" y2="17.75"></line><line class="cls-1" x1="8.18" y1="21.57" x2="15.82" y2="21.57"></line><line class="cls-1" x1="7.23" y1="12.02" x2="10.09" y2="12.02"></line><line class="cls-1" x1="13.91" y1="12.02" x2="16.77" y2="12.02"></line></g></svg>