<svg xmlns="http://www.w3.org/2000/svg" shape-rendering="geometricPrecision" text-rendering="geometricPrecision" image-rendering="optimizeQuality" fill-rule="evenodd" clip-rule="evenodd" viewBox="0 0 512 420.165"><path fill-rule="nonzero" d="M74.316 0h363.368c20.398 0 38.963 8.366 52.425 21.816h.075C503.634 35.266 512 53.862 512 74.316v271.533c0 20.398-8.366 38.963-21.816 52.426l-.075.074c-13.462 13.45-32.027 21.816-52.425 21.816H74.316c-20.454 0-39.05-8.366-52.5-21.816l-1.065-1.164C7.926 383.822 0 365.702 0 345.849V74.316c0-20.454 8.366-39.05 21.816-52.5C35.266 8.366 53.862 0 74.316 0zm265.137 278.351v-48.276h-32.765v48.276h-43.694V141.814h43.694v48.282h32.765v-48.282h43.694v136.537h-43.694zm-92.844 0h-117.75v-27.309l55.925-72.965-.657-1.307h-45.874l-3.932-34.956h111.415v27.308l-55.274 72.966.656 1.313h55.491v34.95zM437.684 35.929H74.316c-10.54 0-20.138 4.328-27.098 11.289-6.961 6.96-11.289 16.558-11.289 27.098v271.533c0 10.175 4 19.457 10.49 26.349l.799.75c6.96 6.96 16.558 11.288 27.098 11.288h363.368c10.564 0 20.169-4.316 27.135-11.251 6.936-6.967 11.252-16.571 11.252-27.136V74.316c0-10.54-4.329-20.138-11.289-27.098-6.929-6.973-16.534-11.289-27.098-11.289z"/></svg>